<svg width="406" height="350" viewBox="0 0 406 350" fill="none" xmlns="http://www.w3.org/2000/svg">
<g clip-path="url(#clip0_2983_8549)">
<mask id="mask0_2983_8549" style="mask-type:luminance" maskUnits="userSpaceOnUse" x="148" y="218" width="97" height="28">
<path d="M208.304 231.721C207.933 232.252 207.572 232.804 207.227 233.356C207.335 232.871 207.758 232.252 208.304 231.721ZM185.587 240.89C185.587 238.889 188.517 235.754 188.553 235.718L188.909 235.321C189.858 234.264 192.725 231.046 193.705 231.046C194.071 231.046 194.257 231.53 194.257 232.484C194.257 234.475 191.905 237.239 187.81 240.07C187.728 240.127 187.676 240.163 187.671 240.168C186.227 241.097 185.768 241.169 185.649 241.169C185.634 241.169 185.593 241.133 185.593 240.885L185.587 240.89ZM218.583 240.89C218.583 238.889 221.512 235.754 221.543 235.718L221.904 235.321C222.842 234.264 225.715 231.046 226.7 231.046C227.061 231.046 227.247 231.53 227.247 232.484C227.247 234.475 224.895 237.239 220.8 240.07C220.718 240.127 220.666 240.163 220.661 240.168C219.212 241.097 218.753 241.169 218.634 241.169C218.619 241.169 218.583 241.133 218.583 240.885V240.89ZM178.955 222.449C181.199 221.041 183.519 220.2 185.861 219.942C188.151 219.942 190.579 220.809 190.579 222.402C190.579 223.258 189.378 223.691 187 223.691C184.283 223.691 181.637 223.119 178.955 222.449ZM176.428 221.85C175.051 221.577 173.705 221.226 172.287 220.855C169.121 220.025 165.846 219.164 161.86 219.164C157.254 219.164 150.89 219.751 148.735 224.883C148.575 225.362 148.508 225.749 148.508 226.131C148.508 226.677 148.704 227.095 149.044 227.281C149.183 227.399 149.379 227.399 149.472 227.399C150.37 227.399 150.514 226.26 150.648 225.249C150.725 224.635 150.808 224.001 151.035 223.717C153.319 220.773 157.822 220.525 161.865 220.525C165.5 220.525 168.492 221.293 171.38 222.041C172.592 222.356 173.752 222.65 174.938 222.897C170.952 225.749 165.439 231.85 165.439 238.044C165.439 242.536 167.826 245.011 172.169 245.011C175.877 245.011 181.364 242.391 183.751 240.406C183.751 240.447 183.736 240.488 183.736 240.529C183.736 241.999 184.303 242.747 185.422 242.747C185.856 242.747 186.413 242.68 187.207 242.195C187.315 242.128 189.631 240.705 191.271 239.323C191.126 239.967 191.09 240.473 191.09 241.05C191.116 241.69 191.534 242.891 192.916 242.891H193.158V242.866C194.226 242.726 195.855 241.731 197.892 240.019C197.779 240.529 197.717 240.978 197.717 241.334C197.717 242.391 198.289 242.969 199.326 242.969C203.271 242.969 205.788 238.704 207.459 235.888L207.675 235.527C209.284 235.635 211.357 234.826 212.992 233.789C211.208 236.863 210.326 239.256 210.326 241.035C210.326 241.061 210.295 241.788 210.79 242.329C211.11 242.68 211.564 242.871 212.157 242.897H212.177C212.652 242.897 213.998 242.608 216.762 240.303C216.762 240.38 216.736 240.457 216.736 240.535C216.736 242.004 217.304 242.752 218.418 242.752C218.851 242.752 219.408 242.685 220.202 242.2C220.315 242.133 222.631 240.71 224.271 239.328C224.121 239.972 224.085 240.478 224.085 241.055C224.111 241.695 224.529 242.897 225.911 242.897H226.153V242.871C227.288 242.721 229.052 241.628 231.285 239.699C230.934 240.452 230.929 241.112 230.929 241.556C230.929 242.628 231.352 242.747 231.532 242.747C232.001 242.747 232.213 242.319 232.605 241.54C232.811 241.117 233.079 240.586 233.471 239.921C234.91 237.445 237.963 232.933 242.316 230.504C242.475 230.411 242.738 230.313 242.934 230.313C243.099 230.313 243.099 230.365 243.099 230.411C242.945 231.546 242.321 232.701 241.949 233.397C241.821 233.624 241.723 233.81 241.671 233.939C241.578 234.176 241.403 234.882 241.686 235.305C241.774 235.434 241.949 235.594 242.259 235.594C242.64 235.594 244.729 234.779 244.729 231.185C244.729 229.71 244.074 228.828 242.976 228.828C241.743 228.828 240.103 229.988 238.67 231.262C239.175 230.545 239.546 229.906 239.546 229.436C239.546 229.014 239.196 228.9 238.989 228.833C236.643 228.395 234.353 233.036 231.945 238.245C231.872 238.162 231.78 238.111 231.666 238.111C231.383 238.111 230.872 238.456 229.603 239.369C228.376 240.256 226.695 241.468 226.045 241.468C225.885 241.468 225.715 241.432 225.715 241.055C225.715 239.751 227.855 236.156 232.053 230.406C232.182 230.277 232.337 229.849 232.337 229.509C232.337 229.07 232.074 228.828 231.594 228.828C230.171 228.828 229.253 229.901 228.572 230.896C228.525 230.36 228.35 229.89 228.046 229.529C227.484 228.864 226.55 228.673 225.689 229.06C225.38 229.127 223.198 229.772 219.377 234.547C219.299 234.65 217.917 236.424 217.185 238.394C216.602 238.967 213.312 241.473 212.368 241.473H212.291C212.049 241.473 211.961 241.375 211.961 241.128C211.961 240.988 211.961 240.875 212.028 240.669C212.028 240.643 212.626 238.235 218.232 230.406C218.33 230.308 218.588 229.88 218.588 229.509C218.588 229.256 218.49 228.828 217.84 228.828C216.922 228.828 215.787 229.571 215.334 230.102C215.205 230.287 215.102 230.458 214.978 230.633C214.761 230.762 214.488 230.978 214.07 231.345C213.838 231.546 213.616 231.742 213.431 231.876C212.265 232.804 210.496 233.908 208.49 234.129C209.676 232.283 211.847 229.849 212.26 229.602H212.533V229.359C212.533 229.106 212.255 228.972 211.713 228.972C209.666 228.972 205.855 230.561 205.855 233.598C205.855 234.135 205.999 234.578 206.298 234.939L206.195 235.114C204.524 237.956 202.441 241.483 199.28 241.607C199.316 239.328 203.787 233.279 205.478 230.994L205.912 230.401C206.041 230.272 206.195 229.844 206.195 229.504C206.195 229.003 205.886 228.823 205.592 228.823C202.884 228.823 199.79 234.227 198.429 238.167C198.109 238.302 197.583 238.663 196.613 239.364C195.386 240.251 193.705 241.463 193.06 241.463C192.9 241.463 192.73 241.427 192.73 241.05C192.73 239.746 194.87 236.151 199.063 230.401C199.197 230.272 199.352 229.844 199.352 229.504C199.352 229.065 199.089 228.823 198.604 228.823C197.186 228.823 196.263 229.895 195.577 230.891C195.535 230.354 195.355 229.885 195.051 229.524C194.494 228.859 193.555 228.668 192.694 229.055C192.384 229.122 190.203 229.767 186.382 234.542C186.299 234.65 184.726 236.682 184.056 238.812C183.602 239.008 182.993 239.354 182.101 239.864C179.497 241.375 175.557 243.655 172.096 243.655C169.363 243.655 167.801 241.984 167.801 239.075C167.801 233.413 172.798 227.044 177.48 223.48L178.017 223.624C180.802 224.372 183.679 225.141 186.722 225.141C191.492 225.141 192.008 223.181 192.008 222.335C192.008 220.231 189.527 218.586 186.361 218.586C183.009 218.586 179.853 219.628 176.439 221.861L176.428 221.85Z" fill="white"/>
</mask>
<g mask="url(#mask0_2983_8549)">
<path d="M188.266 171.193L135.492 234.086L204.975 292.389L257.748 229.496L188.266 171.193Z" fill="url(#paint0_linear_2983_8549)"/>
</g>
<mask id="mask1_2983_8549" style="mask-type:luminance" maskUnits="userSpaceOnUse" x="138" y="197" width="130" height="20">
<path d="M156.431 198.036C154.703 198.128 153.002 198.324 151.222 198.644C145.823 199.603 141.439 201.589 138.211 204.549L138.758 205.23C138.902 205.127 139.062 205.029 139.222 204.931L139.521 204.745C142.821 202.62 146.999 201.249 151.934 200.676C153.724 200.47 155.596 200.367 157.566 200.356C165.177 200.356 174.393 201.903 184.96 204.956C185.919 205.235 186.884 205.524 187.869 205.823C190.226 206.55 192.33 207.231 194.3 207.911C200.54 210.072 206.759 211.846 212.778 213.187C214.057 213.476 215.32 213.744 216.573 213.992C224.123 215.462 231.317 216.204 237.96 216.204C242.978 216.204 247.944 215.75 252.714 214.863C256.417 214.172 262.704 212.486 266.406 210.97C266.736 210.836 267.056 210.696 267.345 210.562L267.03 209.753L266.226 210.005C263.322 210.913 259.057 212.14 256.577 212.61C255.669 212.785 254.736 212.95 253.777 213.089C249.713 213.703 245.412 214.012 240.982 214.012C235.139 214.012 228.739 213.44 221.968 212.316L221.256 212.197C220.554 212.078 219.853 211.97 219.141 211.836C216.743 211.387 214.5 210.918 212.277 210.397C206.228 208.984 199.895 207.138 193.464 204.915C192.159 204.467 190.886 204.049 189.612 203.641C187.601 202.997 185.806 202.45 184.135 201.981C183.609 201.831 183.098 201.697 182.588 201.563L181.969 201.398C173.362 199.113 165.719 197.953 159.262 197.953C158.38 197.953 157.483 197.979 156.431 198.036Z" fill="white"/>
</mask>
<g mask="url(#mask1_2983_8549)">
<path d="M191.56 134.37L129.227 208.656L213.982 279.775L276.316 205.488L191.56 134.37Z" fill="url(#paint1_linear_2983_8549)"/>
</g>
<mask id="mask2_2983_8549" style="mask-type:luminance" maskUnits="userSpaceOnUse" x="103" y="105" width="199" height="70">
<path d="M109.209 159.776L109.931 160.158C111.194 158.26 111.442 158.291 112.421 159.565C113.613 161.112 115.402 163.84 116.599 165.691C114.082 165.779 111.302 165.929 108.667 165.924C107.558 165.965 107.223 165.851 107.955 163.897L107.233 163.515L103.984 169.673L104.706 170.054C105.681 168.59 106.109 168.456 108.409 168.353C111.555 168.198 113.721 168.157 115.789 168.1C116.795 168.069 117.078 168.09 117.599 168.363L121.029 170.168C123.22 171.323 123.251 171.638 122.194 174.015L122.916 174.397L126.763 167.105L126.041 166.723C124.639 169.013 124.35 169.121 122.184 167.981L118.677 166.13C118.007 165.774 117.764 165.552 117.269 164.861C115.655 162.427 114.623 160.761 113.35 158.611C112.313 156.775 112.2 156.357 112.932 154.47L112.21 154.088L109.203 159.781L109.209 159.776ZM292.234 152.897C292.936 154.506 292.812 154.944 291.652 156.93C290.068 159.653 288.929 161.488 287.846 163.263C287.325 164.119 287.155 164.351 286.644 164.634L283.261 166.527C281.1 167.734 280.816 167.589 279.398 165.413L278.687 165.81L282.709 173.004L283.421 172.607C282.266 170.178 282.333 169.879 284.468 168.683L287.928 166.749C288.593 166.377 288.913 166.3 289.759 166.259C292.678 166.228 294.637 166.264 297.134 166.372C299.243 166.496 299.65 166.635 300.836 168.275L301.543 167.878L298.402 162.257L297.691 162.654C298.593 164.753 298.433 164.944 296.84 165.067C294.885 165.222 291.626 165.243 289.424 165.243C290.718 163.082 292.111 160.668 293.544 158.461C294.111 157.512 294.39 157.291 295.633 158.967L296.339 158.57L292.946 152.489L292.229 152.886L292.234 152.897ZM122.034 147.105L122.07 147.059L129.404 149.9L125.938 153.995C124.68 151.783 123.344 149.431 122.034 147.105ZM119.549 144.583L127.336 159.065C128.635 161.499 128.506 161.922 127.521 163.489L128.14 164.015L132.22 159.188L131.601 158.662C130.033 160.199 129.641 160.215 128.651 158.539C127.96 157.456 127.31 156.331 126.609 155.13L130.616 150.39C132.39 151.05 133.968 151.618 135.082 152.066C136.196 152.515 136.201 152.861 135.195 154.413L135.814 154.939L140.419 149.488L139.8 148.962C138.444 150.298 138.001 150.416 135.484 149.508C130.415 147.662 124.922 145.579 119.93 143.722L119.549 144.583ZM279.749 137.843C281.064 139.715 281.141 139.942 279.14 141.639L270.286 149.127C268.481 150.653 268.151 150.622 266.284 148.73L265.665 149.256L274.731 159.977C275.592 159.596 278.063 158.276 278.908 157.786L278.434 157.043C277.299 157.507 276.185 157.724 275.422 157.724C274.427 157.724 273.725 157.254 272.297 155.563C271.353 154.449 270.719 153.65 270.626 153.005C270.574 152.36 270.935 151.829 271.977 150.947L276.185 147.389L277.97 149.503C279.61 151.442 279.61 151.711 278.248 153.356L278.795 154L283.065 150.39L282.518 149.746C280.786 150.72 280.512 150.757 278.821 148.75L277.052 146.657L282.101 142.387C282.771 141.819 282.854 141.824 283.436 142.515L284.87 144.212C286.221 145.816 286.577 146.548 286.371 147.255C286.123 147.956 285.824 148.596 285.056 149.586L285.711 150.143C286.794 149.117 288.212 147.724 288.764 147.255L280.373 137.333L279.754 137.859L279.749 137.843ZM136.062 131.804C135.582 131.18 135.463 130.829 135.536 130.592C135.613 130.309 135.938 129.917 136.608 129.401C138.367 128.055 140.718 127.72 142.637 130.216C143.591 131.464 143.931 132.676 143.56 134.058C143.338 134.965 142.719 135.734 141.538 136.636L140.43 137.487L136.067 131.799L136.062 131.804ZM140.646 126.338C139.326 126.436 138.032 127.096 136.345 128.395L130.616 132.789L131.111 133.434C133.04 132.212 133.277 132.139 134.783 134.104L141.91 143.397C143.421 145.362 143.312 145.666 141.528 147.255L142.023 147.899L148.103 143.237L147.608 142.593C145.649 143.872 145.334 143.892 143.823 141.928L141.002 138.245L141.745 137.678C142.941 136.755 143.55 136.734 144.442 137.075C146.01 137.678 147.938 138.472 149.614 138.983C151.806 139.689 153.168 139.452 154.973 138.214C155.267 138.024 155.519 137.828 155.798 137.616L155.432 136.946C154.818 137.198 154.091 137.353 152.936 137.137C151.92 136.961 150.971 136.734 149.217 136.167C147.727 135.657 145.566 134.852 144.591 134.393C145.736 132.34 146.02 130.174 144.493 128.189C143.514 126.91 142.245 126.317 140.961 126.317C140.858 126.317 140.749 126.317 140.646 126.327V126.338ZM264.577 125.115C266.31 126.73 266.377 126.972 264.819 128.906L257.506 137.988C255.954 139.916 255.645 139.927 253.628 138.529L253.118 139.158L263.396 147.44C264.164 146.899 266.377 145.13 267.083 144.537L266.511 143.856C265.325 144.625 264.314 145.006 263.561 145.146C262.565 145.316 261.699 144.81 260.451 143.805C259.497 143.036 258.765 142.371 258.512 141.757C258.29 141.2 258.538 140.654 259.528 139.432L266.748 130.463C268.305 128.529 268.604 128.586 270.502 129.891L271.013 129.257L265.092 124.486L264.582 125.121L264.577 125.115ZM154.261 119.778C153.91 119.071 153.859 118.71 153.977 118.488C154.111 118.225 154.503 117.906 155.256 117.529C157.237 116.544 159.609 116.668 161.012 119.484C161.713 120.897 161.816 122.145 161.187 123.434C160.795 124.28 160.037 124.914 158.706 125.58L157.453 126.198L154.266 119.778H154.261ZM155.194 116.482L148.722 119.7L149.088 120.433C151.213 119.602 151.466 119.577 152.564 121.799L157.778 132.289C158.882 134.506 158.722 134.78 156.659 136.002L157.025 136.729L163.884 133.32L163.523 132.588C161.357 133.47 161.048 133.429 159.944 131.211L157.881 127.06L158.717 126.647C160.073 125.971 160.671 126.064 161.481 126.575C162.899 127.467 164.642 128.612 166.189 129.437C168.211 130.551 169.588 130.582 171.594 129.71C171.924 129.581 172.208 129.442 172.522 129.282L172.29 128.55C171.64 128.679 170.898 128.689 169.805 128.256C168.84 127.89 167.953 127.482 166.344 126.59C164.977 125.806 163.013 124.605 162.146 123.96C163.662 122.166 164.353 120.098 163.24 117.849C162.466 116.286 161.202 115.446 159.82 115.286C159.63 115.26 159.444 115.25 159.248 115.25H159.238C158.082 115.25 156.829 115.662 155.2 116.472L155.194 116.482ZM247.362 115.394C249.374 116.653 249.482 116.874 248.327 119.066L242.886 129.375C241.731 131.567 241.426 131.634 239.183 130.649L238.807 131.371L250.477 137.529C251.127 136.853 252.963 134.692 253.54 133.97L252.849 133.408C251.839 134.393 250.916 134.955 250.204 135.239C249.26 135.6 248.316 135.265 246.893 134.517C245.81 133.944 244.964 133.429 244.598 132.877C244.268 132.377 244.412 131.794 245.15 130.401L250.518 120.216C251.674 118.03 251.973 118.024 254.092 118.942L254.474 118.22L247.749 114.672L247.367 115.394H247.362ZM226.904 118.896C228.42 116.854 230.04 114.693 231.649 112.558L231.705 112.573L232.046 120.428L226.909 118.901L226.904 118.896ZM222.82 122.207C221.107 124.373 220.669 124.424 218.833 124.156L218.601 124.935L224.661 126.74L224.893 125.956C222.856 125.141 222.691 124.785 223.825 123.207C224.537 122.14 225.305 121.093 226.125 119.969L232.077 121.737C232.18 123.625 232.293 125.296 232.329 126.497C232.371 127.694 232.051 127.843 230.225 127.544L229.993 128.323L236.831 130.36L237.069 129.576C235.305 128.87 235.016 128.509 234.836 125.843C234.49 120.448 234.201 114.59 233.897 109.273L232.958 109.262L222.814 122.207H222.82ZM178.974 111.428L179.031 111.418L183.115 118.133L177.875 119.272C178.221 116.756 178.592 114.079 178.969 111.434L178.974 111.428ZM178.536 107.911L175.895 124.141C175.441 126.864 175.08 127.121 173.342 127.771L173.518 128.571L179.696 127.225L179.526 126.43C177.344 126.699 177.03 126.467 177.262 124.538C177.37 123.259 177.535 121.97 177.716 120.593L183.78 119.272C184.781 120.871 185.688 122.284 186.297 123.316C186.911 124.347 186.704 124.631 184.961 125.244L185.131 126.044L192.109 124.527L191.939 123.728C190.046 123.96 189.623 123.785 188.179 121.536C185.276 116.977 182.192 111.985 179.361 107.473L178.536 107.922V107.911ZM202.14 105.848C203.847 106.101 204.295 106.364 205.002 108.602C206.42 112.929 208.411 119.329 210.02 124.775L210.922 124.832C213.48 118.978 217.033 111.789 217.941 109.948C219.215 107.401 219.607 107.163 221.603 107.055L221.654 106.24L215.11 105.823L215.058 106.637C217.394 107.076 217.554 107.323 216.894 108.943C215.78 111.795 213.212 117.323 211.526 120.866H211.464C209.834 115.735 208.065 109.99 207.441 107.88C207.054 106.57 207.188 106.374 209.267 106.271L209.318 105.456L202.191 105.008L202.14 105.854V105.848Z" fill="white"/>
</mask>
<g mask="url(#mask2_2983_8549)">
<path d="M219.922 7.72793L69.8281 133.672L185.618 271.665L335.713 145.721L219.922 7.72793Z" fill="url(#paint2_linear_2983_8549)"/>
</g>
<mask id="mask3_2983_8549" style="mask-type:luminance" maskUnits="userSpaceOnUse" x="172" y="138" width="63" height="59">
<path d="M215.988 180.568C215.988 180.568 216.106 180.434 216.292 180.259C216.173 180.362 216.055 180.46 215.988 180.568ZM216.292 180.254C216.292 180.254 216.312 180.238 216.323 180.228C216.312 180.238 216.307 180.243 216.292 180.254ZM216.323 180.228C216.323 180.228 216.354 180.197 216.374 180.176C216.354 180.192 216.338 180.212 216.323 180.228ZM227.493 151.152C227.493 151.152 227.493 151.121 227.493 151.075C227.478 151.121 227.472 151.152 227.493 151.152ZM179.594 152.266C180.806 152.694 184.998 153.55 184.998 153.55L183.446 152.952C180.238 152.462 174.55 150.095 174.55 150.095C174.55 150.095 177.474 151.756 179.594 152.271V152.266ZM197.2 151.838C197.257 156.608 190.831 155.721 190.831 155.721C196.999 157.227 197.577 153.086 197.577 153.086C198.536 147.965 193.858 146.268 193.817 146.253C196.133 147.176 197.174 150.167 197.2 151.838ZM186.829 151.874C186.829 151.874 187.03 153.127 186.087 152.911L186.355 153.256C187.752 153.256 187.391 151.977 187.391 151.977C185.04 145.531 176.52 144.618 176.52 144.618C176.52 144.618 184.694 146.341 186.834 151.874H186.829ZM186.494 143.453C186.494 143.288 186.633 143.153 186.803 143.153C186.974 143.153 187.108 143.288 187.108 143.453C187.108 143.618 186.968 143.752 186.803 143.752C186.638 143.752 186.494 143.618 186.494 143.453ZM186.288 143.659C186.288 143.922 186.396 144.159 186.571 144.329C186.742 144.499 186.984 144.608 187.247 144.608C187.773 144.608 188.201 144.185 188.201 143.659C188.201 143.582 188.134 143.535 188.119 143.463C188.057 143.221 187.928 143.04 187.721 142.911C187.577 142.818 187.433 142.715 187.242 142.715C186.716 142.715 186.288 143.138 186.288 143.659ZM178.506 143.762C177.67 144.087 177.031 144.35 176.737 144.479C178.294 144.603 179.068 144.577 180.254 144.608C180.45 144.623 180.44 144.618 180.445 144.613C180.749 144.623 181.053 144.634 181.435 144.654C181.899 144.665 184.493 144.763 185.024 144.783C185.153 144.933 185.303 145.067 185.468 145.175C185.643 145.216 186.143 145.258 186.314 145.299C185.736 144.974 185.349 144.36 185.349 143.654C185.349 143.313 185.442 142.988 185.602 142.715L185.633 142.705C185.592 142.839 185.571 142.988 185.571 143.138C185.571 143.54 185.726 143.901 185.983 144.175C185.922 144.015 185.88 143.845 185.88 143.659C185.88 142.906 186.494 142.297 187.257 142.297C187.928 142.297 188.485 142.772 188.608 143.401C188.619 143.319 188.634 143.236 188.634 143.143C188.634 142.674 188.418 142.256 188.077 141.978L188.103 141.967C188.732 142.277 189.171 142.916 189.171 143.659C189.171 144.695 188.325 145.536 187.283 145.546C187.355 145.567 187.752 145.582 187.83 145.603C188.356 145.546 188.835 145.325 189.207 144.995C190.341 145.082 191.579 145.221 192.848 145.381C193.033 145.402 193.229 145.433 193.415 145.459L196.999 146.109L196.819 145.794C196.437 145.252 196.066 144.783 195.705 144.376C195.467 144.102 195.251 143.896 195.024 143.674C194.916 143.566 194.797 143.427 194.689 143.329C195.24 143.36 195.736 143.427 196.272 143.468C197.664 143.571 199.067 143.68 200.362 143.86C200.82 143.922 201.228 144.02 201.677 144.097C203.017 144.314 204.348 144.536 205.58 144.824C205.921 144.902 206.22 145.01 206.55 145.093C207.819 145.412 209.067 145.748 210.227 146.134C210.495 146.222 210.722 146.33 210.985 146.423C212.145 146.836 213.28 147.264 214.327 147.728C214.58 147.841 214.791 147.965 215.033 148.084C216.039 148.558 217.029 149.038 217.927 149.548C218.179 149.693 218.391 149.847 218.638 149.992C219.474 150.492 220.309 150.997 221.052 151.518C221.408 151.766 221.707 152.024 222.042 152.282C222.614 152.71 223.213 153.143 223.728 153.581C224.553 154.283 225.306 154.984 225.997 155.68C224.584 154.03 222.955 152.519 221.129 151.157C217.653 148.574 213.44 146.516 208.592 145.031C207.85 144.804 207.112 144.603 206.38 144.412C206.225 144.376 206.07 144.329 205.911 144.293C205.219 144.123 204.544 143.963 203.879 143.819C203.745 143.793 203.616 143.767 203.482 143.736C202.894 143.618 202.316 143.504 201.754 143.411C201.64 143.391 201.527 143.37 201.419 143.349C200.81 143.246 200.227 143.159 199.665 143.081C199.511 143.056 199.371 143.04 199.222 143.019C198.685 142.947 198.159 142.885 197.675 142.834C197.587 142.823 197.515 142.813 197.432 142.808C197.004 142.762 196.607 142.731 196.236 142.7C196.117 142.689 195.999 142.679 195.885 142.669C195.498 142.638 195.148 142.617 194.828 142.597C194.72 142.591 194.627 142.586 194.529 142.581C194.286 142.571 194.075 142.56 193.884 142.555C193.843 142.555 193.786 142.55 193.75 142.55C193.745 142.545 193.735 142.545 193.729 142.535C193.296 142.236 192.92 142.024 192.579 141.869C192.554 141.859 192.518 141.828 192.492 141.818H192.538C192.688 141.818 192.915 141.823 193.172 141.828C193.25 141.828 193.338 141.833 193.425 141.838C193.724 141.844 194.07 141.864 194.467 141.88C194.57 141.88 194.684 141.895 194.792 141.9C195.21 141.926 195.669 141.957 196.174 141.998C196.256 142.003 196.344 142.014 196.437 142.019C196.953 142.065 197.515 142.117 198.098 142.184C198.221 142.194 198.345 142.21 198.469 142.225C199.088 142.297 199.753 142.385 200.439 142.488C200.588 142.509 200.733 142.535 200.888 142.555C201.589 142.664 202.316 142.787 203.064 142.932C203.208 142.958 203.347 142.988 203.492 143.019C204.265 143.174 205.06 143.344 205.869 143.54C205.978 143.566 206.081 143.592 206.184 143.618C207.045 143.834 207.912 144.066 208.783 144.329C214.667 146.129 217.251 147.377 221.547 150.564C225.621 153.586 228.695 157.325 230.721 161.688C232.181 164.102 232.707 165.752 232.707 165.752C227.679 140.131 198.608 140.157 196.334 140.183C196.246 140.183 196.2 140.183 196.195 140.183C195.782 140.173 195.385 140.162 194.988 140.162C187.123 140.162 181.971 142.566 178.526 143.747L178.506 143.762ZM198.752 154.814C199 154.489 199.227 154.133 199.433 153.762C199.495 153.648 199.547 153.535 199.603 153.411C199.753 153.102 199.877 152.787 199.97 152.457C199.995 152.374 200.047 152.297 200.062 152.215C200.398 152.261 200.8 152.333 201.254 152.431C201.512 152.483 201.805 152.565 202.089 152.632C202.311 152.689 202.522 152.73 202.765 152.797C203.121 152.895 203.492 153.029 203.863 153.153C204.059 153.22 204.245 153.267 204.441 153.339C205.013 153.555 205.586 153.803 206.137 154.087C208.107 155.103 209.882 156.479 211.429 158.176C211.547 158.274 211.656 158.367 211.748 158.455C211.929 158.651 212.104 158.852 212.269 159.058C212.218 159.079 212.156 159.104 212.078 159.135C211.79 158.816 211.387 158.434 210.877 158.016C209.546 156.938 208.86 156.469 207.746 155.819C206.313 154.984 205.452 154.53 204.08 153.958C203.317 153.633 202.579 153.328 201.852 153.091C202.595 153.375 203.353 153.71 204.121 154.107C205.436 154.778 206.751 155.654 208.123 156.583C209.288 157.372 210.186 158.14 210.815 158.728C210.975 158.878 211.243 159.079 211.398 159.254C211.439 159.29 211.424 159.3 211.46 159.326C211.521 159.306 211.599 159.29 211.671 159.275C211.537 159.321 211.398 159.367 211.233 159.419C211.114 159.455 210.97 159.491 210.841 159.532C210.593 159.233 210.273 158.975 209.866 158.656C209.252 158.135 208.386 157.444 207.334 156.717C206.076 155.85 204.812 155.113 203.574 154.54C202.878 154.215 202.197 153.942 201.527 153.72C202.213 153.989 202.909 154.313 203.6 154.695C204.797 155.345 206.019 156.149 207.226 157.093C208.231 157.882 209.056 158.62 209.639 159.182C209.778 159.326 210.026 159.522 210.155 159.697C210.165 159.703 210.165 159.713 210.175 159.718C209.954 159.775 209.732 159.826 209.495 159.873C209.046 159.419 208.381 158.785 207.499 158.073C207.422 158.011 207.344 157.954 207.272 157.893C206.205 157.047 205.091 156.299 203.941 155.659C203.095 155.19 202.234 154.778 201.367 154.432C202.218 154.829 203.064 155.293 203.884 155.819C204.436 156.17 204.977 156.552 205.508 156.959C206.045 157.366 206.566 157.795 207.071 158.243C207.442 158.578 207.772 158.893 208.066 159.187C208.36 159.481 208.623 159.754 208.84 159.991C208.768 160.002 208.69 160.017 208.613 160.028C208.427 160.053 208.247 160.064 208.066 160.079C207.803 159.801 207.514 159.512 207.179 159.202C206.22 158.315 205.194 157.516 204.126 156.84C203.177 156.242 202.192 155.732 201.187 155.329C202.151 155.788 203.095 156.345 203.997 157C205.024 157.733 206.003 158.589 206.906 159.538C207.102 159.749 207.282 159.945 207.453 160.141C207.22 160.151 207.004 160.151 206.777 160.151C205.137 158.568 203.652 157.552 202.631 156.949C202.301 156.753 202.001 156.593 201.738 156.459C201.475 156.325 201.243 156.216 201.058 156.134C201.238 156.227 201.455 156.345 201.697 156.49C201.934 156.634 202.208 156.799 202.502 157C203.425 157.619 204.735 158.63 206.163 160.136C206.122 160.136 206.081 160.136 206.045 160.131C205.864 160.12 205.689 160.1 205.513 160.079C205.472 160.074 205.431 160.064 205.385 160.058C204.549 159.249 203.791 158.635 203.203 158.207C202.079 157.392 201.305 157.026 201.161 156.959C201.444 157.119 202.11 157.526 202.997 158.253C203.456 158.63 204.028 159.156 204.647 159.79C204.693 159.837 204.73 159.873 204.781 159.924L204.425 159.816H204.405C203.853 159.667 203.327 159.471 202.847 159.223C202.749 159.141 201.754 158.357 200.645 157.366C200.212 156.985 199.825 156.619 199.464 156.273C199.15 155.969 198.876 155.68 198.629 155.412C198.598 155.376 198.557 155.34 198.526 155.304C198.526 155.298 198.526 155.288 198.526 155.283C198.572 155.154 198.613 155.051 198.655 154.979C198.655 154.968 198.665 154.953 198.675 154.937C198.701 154.891 198.727 154.85 198.727 154.85C198.722 154.855 198.711 154.865 198.706 154.876C198.722 154.855 198.727 154.839 198.742 154.819L198.752 154.814ZM216.993 141.606C217.555 140.879 218.272 140.343 219.025 139.946C219.402 139.75 219.788 139.59 220.175 139.461C220.949 139.198 221.707 139.048 222.351 138.971C223.001 138.894 223.538 138.873 223.857 138.873C223.862 138.976 223.878 139.105 223.888 139.25C223.873 139.25 223.852 139.25 223.831 139.25C223.723 139.239 223.605 139.25 223.481 139.26C223.398 139.27 223.326 139.27 223.238 139.286C223.104 139.311 222.96 139.342 222.81 139.384C222.723 139.404 222.645 139.425 222.558 139.456C222.398 139.507 222.243 139.554 222.083 139.616C222.006 139.647 221.929 139.678 221.846 139.709C221.681 139.776 221.526 139.837 221.366 139.905C221.294 139.935 221.232 139.966 221.165 139.997C221.005 140.07 220.856 140.137 220.706 140.209C220.655 140.235 220.619 140.255 220.567 140.276C220.062 140.529 219.696 140.73 219.696 140.73C219.696 140.73 219.881 140.657 220.16 140.549C220.17 140.549 220.18 140.544 220.191 140.539C220.304 140.498 220.448 140.446 220.588 140.4C220.639 140.379 220.696 140.363 220.758 140.343C220.897 140.296 221.052 140.245 221.207 140.204C221.284 140.183 221.361 140.157 221.444 140.137C221.598 140.09 221.758 140.049 221.918 140.008C222.011 139.987 222.094 139.966 222.181 139.946C222.341 139.91 222.496 139.884 222.651 139.853C222.738 139.837 222.831 139.827 222.919 139.817C223.063 139.801 223.202 139.786 223.336 139.781C223.419 139.781 223.491 139.781 223.568 139.786C223.687 139.791 223.806 139.801 223.909 139.827C223.929 139.832 223.945 139.848 223.966 139.853C223.981 139.951 223.997 140.059 224.017 140.162C224.027 140.255 224.043 140.338 224.058 140.431C224.058 140.451 224.058 140.467 224.064 140.487C224.064 140.487 224.058 140.487 224.053 140.487C222.723 140.621 220.572 141.807 220.572 141.807C220.572 141.807 220.624 141.792 220.691 141.771C220.727 141.761 220.784 141.74 220.835 141.73C220.892 141.709 220.954 141.694 221.026 141.668C221.093 141.648 221.176 141.622 221.258 141.601C221.346 141.575 221.423 141.55 221.521 141.524C221.614 141.498 221.717 141.472 221.815 141.452C221.908 141.426 222.006 141.405 222.104 141.379C222.222 141.354 222.336 141.333 222.449 141.307C222.542 141.287 222.635 141.271 222.728 141.256C222.846 141.23 222.965 141.214 223.084 141.199C223.171 141.189 223.254 141.178 223.336 141.173C223.45 141.163 223.558 141.158 223.661 141.158C223.734 141.158 223.801 141.163 223.873 141.168C223.966 141.178 224.058 141.189 224.131 141.204C224.162 141.214 224.182 141.23 224.208 141.24C224.213 141.266 224.223 141.287 224.223 141.312C224.244 141.395 224.265 141.477 224.285 141.56C224.301 141.627 224.311 141.684 224.327 141.751C223.326 141.983 221.408 142.932 221.408 142.932C221.408 142.932 221.454 142.921 221.5 142.901C221.531 142.89 221.583 142.875 221.624 142.865C221.671 142.854 221.712 142.839 221.769 142.823C221.836 142.803 221.923 142.782 222.011 142.756C222.057 142.741 222.104 142.731 222.155 142.715C222.259 142.689 222.367 142.664 222.475 142.638C222.532 142.627 222.578 142.612 222.635 142.602C222.759 142.571 222.883 142.545 223.012 142.519C223.058 142.509 223.104 142.504 223.151 142.493C223.29 142.468 223.424 142.447 223.558 142.426C223.589 142.426 223.615 142.426 223.646 142.421C223.96 142.385 224.254 142.364 224.497 142.395C224.517 142.473 224.538 142.545 224.559 142.627C224.636 142.88 224.724 143.117 224.811 143.36C224.605 143.442 224.363 143.561 224.105 143.69C224.1 143.69 224.1 143.69 224.089 143.695C223.842 143.824 223.594 143.958 223.362 144.087C223.342 144.097 223.326 144.108 223.3 144.123C223.079 144.247 222.893 144.36 222.749 144.443C222.728 144.457 222.707 144.469 222.687 144.479C222.573 144.546 222.491 144.597 222.491 144.597L225.002 143.886C225.069 144.061 225.152 144.226 225.229 144.391C225.286 144.515 225.337 144.644 225.394 144.763C225.404 144.783 225.415 144.799 225.425 144.824L223.532 146.098L225.642 145.247C225.796 145.536 225.961 145.815 226.137 146.083C226.07 146.139 226.013 146.206 225.946 146.268C225.843 146.361 225.75 146.444 225.657 146.547C225.564 146.65 225.492 146.743 225.41 146.846C225.327 146.949 225.255 147.037 225.188 147.135C225.116 147.238 225.064 147.32 225.007 147.408C224.956 147.491 224.909 147.558 224.878 147.614C224.847 147.661 224.847 147.666 224.827 147.692C224.806 147.728 224.765 147.795 224.765 147.795C224.765 147.795 224.945 147.62 225.178 147.408C225.245 147.346 225.312 147.289 225.384 147.222C225.487 147.13 225.606 147.042 225.724 146.954C225.812 146.887 225.9 146.831 225.987 146.763C226.095 146.691 226.209 146.624 226.312 146.573C226.364 146.547 226.395 146.547 226.441 146.531C226.627 146.8 226.823 147.052 227.029 147.295C226.709 147.836 226.42 148.749 226.302 149.172C226.302 149.177 226.302 149.177 226.297 149.187C226.26 149.316 226.235 149.404 226.235 149.404C226.235 149.404 226.297 149.301 226.358 149.208C226.4 149.146 226.462 149.053 226.518 148.976C226.57 148.893 226.632 148.811 226.699 148.723C226.771 148.62 226.859 148.512 226.946 148.409C227.019 148.321 227.091 148.244 227.163 148.161C227.251 148.063 227.338 147.981 227.426 147.908C227.462 147.877 227.493 147.872 227.529 147.846C227.56 147.877 227.596 147.903 227.632 147.934C227.772 148.073 227.916 148.207 228.06 148.342C227.957 148.553 227.864 148.795 227.792 149.058C227.792 149.069 227.787 149.079 227.787 149.089C227.648 149.61 227.565 150.157 227.529 150.564C227.529 150.575 227.529 150.58 227.524 150.59C227.503 150.801 227.488 150.972 227.488 151.064C227.503 151.023 227.524 150.967 227.55 150.905C227.57 150.853 227.586 150.807 227.617 150.745C227.684 150.595 227.772 150.415 227.88 150.214C227.895 150.183 227.906 150.167 227.916 150.136C228.045 149.889 228.194 149.626 228.344 149.368C228.396 149.28 228.437 149.208 228.483 149.125C228.55 149.017 228.612 148.919 228.669 148.816C228.777 148.893 228.875 148.981 228.983 149.053C228.916 149.208 228.839 149.425 228.762 149.688C228.71 149.847 228.674 150.049 228.633 150.239C228.607 150.353 228.576 150.446 228.561 150.569C228.519 150.796 228.509 151.049 228.499 151.302C228.488 151.42 228.478 151.523 228.478 151.642C228.478 151.884 228.524 152.132 228.566 152.385C228.586 152.508 228.581 152.627 228.607 152.746L228.483 152.844C231.34 156.392 233.14 159.986 233.826 163.534C234.043 164.674 234.146 165.809 234.135 166.933C234.094 170.311 233.011 173.622 230.892 176.814C230.871 176.855 228.808 180.135 224.822 180.264C224.254 180.28 223.641 180.233 222.996 180.104C222.96 180.099 222.516 180.006 221.8 180.006C221.088 180.006 220.098 180.104 218.989 180.47C215.296 181.698 213.146 184.952 211.991 187.463V187.479C211.955 187.556 209 194.621 204.771 195.637C205.292 194.797 206.179 193.239 206.932 191.254C206.932 191.249 206.932 191.244 206.932 191.233C206.963 191.151 206.983 191.068 207.014 190.986C207.38 190.62 207.819 190.155 208.314 189.604C208.37 189.547 208.417 189.49 208.474 189.423C208.948 188.887 209.443 188.288 209.959 187.623C210.031 187.53 210.098 187.432 210.165 187.34C210.681 186.654 211.191 185.927 211.671 185.138C211.717 185.06 211.759 184.988 211.805 184.911C212.305 184.075 212.775 183.204 213.161 182.291C212.878 182.796 212.517 183.389 212.109 184.013C211.888 184.354 211.619 184.72 211.367 185.081C211.16 185.38 210.965 185.669 210.738 185.973C210.423 186.391 210.077 186.808 209.732 187.221C209.521 187.479 209.314 187.742 209.098 187.989C208.747 188.386 208.376 188.747 208.004 189.119C207.824 189.299 207.643 189.48 207.458 189.65C207.509 189.48 207.514 189.315 207.556 189.145C207.741 188.448 207.87 187.768 207.968 187.092C207.999 186.896 208.071 186.679 208.092 186.484C208.175 186.411 208.293 186.293 208.386 186.21C208.551 186.055 208.701 185.916 208.897 185.731C209.134 185.504 209.386 185.241 209.649 184.962C209.835 184.771 210 184.596 210.196 184.385C210.511 184.039 210.836 183.647 211.166 183.245C211.336 183.039 211.496 182.863 211.666 182.641C212.166 181.997 212.672 181.306 213.156 180.548C212.011 181.95 210.222 183.884 208.18 185.364C208.205 184.797 208.185 184.24 208.144 183.694C208.236 183.632 208.355 183.549 208.453 183.477C208.649 183.348 208.829 183.224 209.046 183.064C209.242 182.925 209.453 182.76 209.66 182.6C209.871 182.44 210.067 182.291 210.289 182.115C210.547 181.904 210.815 181.667 211.088 181.43C211.284 181.259 211.475 181.105 211.681 180.914C212.161 180.47 212.651 179.991 213.141 179.465C211.908 180.522 210.088 181.909 208.077 182.972C208.071 182.925 208.056 182.879 208.051 182.832C207.989 182.399 207.906 181.976 207.803 181.569C207.814 181.569 207.829 181.553 207.844 181.548C208.448 181.218 209.118 180.831 209.866 180.362C209.928 180.321 209.995 180.28 210.057 180.238C210.81 179.764 211.614 179.227 212.455 178.598C211.243 179.294 209.515 180.212 207.643 181.022C207.592 180.857 207.551 180.692 207.499 180.537C207.499 180.532 207.499 180.522 207.494 180.517C207.406 180.28 207.288 180.063 207.19 179.836C207.514 179.676 207.819 179.537 208.128 179.387C208.566 179.176 209.025 178.954 209.433 178.768C210.155 178.444 210.841 178.15 211.429 177.907C210.304 178.237 209.371 178.531 208.566 178.789C208.458 178.825 208.36 178.856 208.257 178.892C208.03 178.964 207.814 179.037 207.618 179.099C207.401 179.171 207.205 179.238 207.019 179.3C206.999 179.305 206.978 179.315 206.957 179.32C206.777 178.954 206.571 178.603 206.354 178.258C206.354 178.258 206.364 178.258 206.37 178.258C208.128 177.613 209.887 177.201 211.258 176.953C210.593 177 209.99 177.056 209.428 177.118C209.242 177.139 209.087 177.159 208.907 177.185C208.551 177.232 208.2 177.273 207.886 177.324C207.705 177.355 207.54 177.381 207.37 177.412C207.112 177.459 206.87 177.5 206.648 177.546C206.478 177.577 206.328 177.608 206.179 177.639C206.117 177.655 206.039 177.67 205.983 177.68C205.746 177.35 205.472 177.041 205.199 176.726C205.204 176.726 205.209 176.726 205.219 176.726C207.215 176.236 209.299 176.071 210.867 176.04C210.175 175.989 209.526 175.963 208.902 175.963C208.675 175.963 208.468 175.968 208.247 175.973C207.875 175.978 207.509 175.984 207.174 175.999C206.921 176.009 206.705 176.03 206.473 176.046C206.199 176.066 205.936 176.092 205.689 176.113C205.462 176.138 205.266 176.159 205.06 176.19C204.967 176.205 204.848 176.211 204.755 176.226C204.327 175.788 203.853 175.37 203.347 174.968C203.523 174.942 203.698 174.926 203.873 174.906C204.265 174.859 204.652 174.813 205.039 174.787C205.235 174.777 205.431 174.777 205.627 174.767C206.024 174.751 206.426 174.736 206.813 174.736C207.035 174.736 207.241 174.751 207.458 174.756C207.798 174.767 208.144 174.772 208.463 174.792C208.989 174.823 209.49 174.865 209.933 174.911C209.077 174.741 208.273 174.617 207.509 174.524C207.257 174.493 207.04 174.483 206.792 174.462C206.302 174.416 205.823 174.369 205.385 174.354C205.106 174.339 204.874 174.339 204.616 174.333C204.276 174.333 203.935 174.323 203.641 174.323C203.368 174.328 203.152 174.344 202.919 174.354C202.791 174.354 202.631 174.359 202.512 174.369C201.805 173.874 201.058 173.4 200.222 172.972C202.682 172.745 206.091 173.07 209.933 173.91C207.148 172.895 204.09 172.58 201.651 172.523C200.841 172.503 200.093 172.518 199.454 172.539C199.676 172.662 199.887 172.786 200.098 172.915C198.887 172.301 197.546 171.75 196.066 171.27C196.86 171.208 197.912 171.162 199.196 171.188C202.017 171.234 206.545 171.61 212.12 173.178L212.223 173.204L212.321 173.178C212.383 173.163 212.501 173.127 212.666 173.08C212.672 173.08 212.677 173.08 212.682 173.08C212.702 173.08 212.723 173.085 212.744 173.09C223.558 174.571 224.657 177.134 224.657 177.134C223.95 177.17 223.305 177.252 222.697 177.35C222.501 177.381 222.331 177.422 222.145 177.459C221.733 177.541 221.341 177.634 220.974 177.737C220.804 177.789 220.634 177.835 220.474 177.887C220.103 178.005 219.757 178.134 219.432 178.273C219.334 178.315 219.226 178.351 219.128 178.397C218.731 178.578 218.37 178.763 218.05 178.949C217.963 179.001 217.901 179.047 217.823 179.093C217.597 179.233 217.395 179.367 217.21 179.496C217.107 179.568 217.024 179.63 216.936 179.702C216.813 179.8 216.704 179.882 216.606 179.97C216.519 180.042 216.447 180.104 216.379 180.166C216.374 180.171 216.359 180.182 216.359 180.187C218.339 178.686 225.812 178.284 225.812 178.284C226.869 173.864 213.894 167.459 208.989 165.21C207.86 164.695 207.159 164.396 207.159 164.396C206.524 164.081 205.952 163.772 205.405 163.472C205.25 163.39 205.111 163.307 204.967 163.225C204.544 162.988 204.152 162.75 203.786 162.518C203.683 162.457 203.574 162.389 203.476 162.328C203.033 162.044 202.631 161.765 202.259 161.487C202.182 161.435 202.115 161.379 202.043 161.322C201.754 161.1 201.481 160.884 201.233 160.672C201.151 160.6 201.068 160.528 200.986 160.456C200.712 160.213 200.459 159.971 200.238 159.739C200.227 159.728 200.212 159.718 200.207 159.708C199.975 159.465 199.779 159.228 199.598 158.996C199.552 158.934 199.511 158.878 199.464 158.816C199.335 158.64 199.217 158.465 199.119 158.295C199.088 158.248 199.052 158.197 199.026 158.15C198.912 157.944 198.809 157.748 198.732 157.557C198.716 157.526 198.706 157.49 198.696 157.459C198.634 157.305 198.582 157.15 198.541 157.005C198.531 156.959 198.515 156.913 198.505 156.871C198.474 156.722 198.448 156.577 198.433 156.443C198.433 156.428 198.433 156.412 198.428 156.397C198.417 156.247 198.412 156.113 198.422 155.984C198.422 155.953 198.422 155.922 198.428 155.886C198.428 155.84 198.438 155.804 198.443 155.763C200.088 157.521 202.533 159.455 202.646 159.538L202.662 159.553C203.286 159.873 203.966 160.11 204.688 160.265L204.895 160.311L204.874 160.285C205.158 160.322 205.488 160.337 205.761 160.358C205.849 160.368 205.941 160.373 206.034 160.383C206.287 160.399 206.54 160.409 206.803 160.409C207.097 160.409 207.391 160.399 207.695 160.378C208.066 160.352 208.443 160.311 208.829 160.254C208.958 160.234 209.077 160.213 209.206 160.193C209.345 160.167 209.479 160.141 209.613 160.115C210 160.033 210.366 159.945 210.696 159.857C210.97 159.785 211.217 159.708 211.429 159.641C211.63 159.579 211.8 159.517 211.95 159.465C212.022 159.44 212.068 159.419 212.135 159.398L212.017 159.512L212.305 159.398C212.455 159.342 212.537 159.306 212.543 159.3L212.759 159.208L212.615 159.022C210.841 156.789 208.721 155.03 206.318 153.787C204.044 152.617 201.934 152.127 200.557 151.931C200.408 151.91 200.274 151.89 200.145 151.874H200.14C200.14 151.874 200.14 151.843 200.14 151.833C200.202 151.395 200.212 150.946 200.114 150.492C200.114 150.492 200.196 150.487 200.356 150.492C201.491 150.518 206.612 150.982 215.941 156.407C215.941 156.407 214.595 155.304 212.311 153.932C209.371 152.163 204.874 149.951 199.676 149.058C199.676 149.058 199.505 148.728 199.211 148.285C198.809 147.681 198.17 146.867 197.334 146.32C197.334 146.32 201.795 151.286 197.195 156.418C197.107 156.49 197.02 156.567 196.927 156.634C196.617 156.871 196.308 157.088 195.988 157.294C195.875 157.366 195.761 157.444 195.653 157.511C195.266 157.748 194.879 157.96 194.503 158.145C194.467 158.171 194.421 158.192 194.384 158.212C193.956 158.424 193.559 158.604 193.198 158.759C193.142 158.785 193.105 158.795 193.054 158.816C192.765 158.934 192.492 159.043 192.275 159.115C192.255 159.12 192.244 159.125 192.229 159.13C191.888 159.068 191.512 158.991 191.094 158.898C191.043 158.888 190.981 158.872 190.929 158.862C190.589 158.79 190.223 158.707 189.841 158.62C189.733 158.594 189.624 158.568 189.521 158.542C189.155 158.455 188.768 158.357 188.371 158.253C188.258 158.223 188.155 158.197 188.041 158.171C187.03 157.903 185.942 157.588 184.833 157.217C184.71 157.176 184.586 157.129 184.467 157.088C184.05 156.944 183.622 156.794 183.199 156.634C183.028 156.572 182.858 156.5 182.688 156.433C182.301 156.278 181.92 156.124 181.538 155.959C181.363 155.886 181.193 155.809 181.028 155.732C180.61 155.541 180.197 155.345 179.795 155.139C179.681 155.082 179.563 155.025 179.455 154.968C178.939 154.695 178.439 154.411 177.969 154.112C177.892 154.061 177.815 154.009 177.737 153.958C177.356 153.71 176.989 153.452 176.639 153.184C176.505 153.081 176.381 152.973 176.252 152.869C175.974 152.637 175.705 152.4 175.458 152.153C175.339 152.029 175.215 151.91 175.102 151.781C174.865 151.518 174.648 151.25 174.447 150.972C174.365 150.858 174.272 150.745 174.194 150.626C173.931 150.224 173.704 149.811 173.534 149.378L173.477 149.229C173.431 149.12 173.364 148.945 173.312 148.821C173.328 148.811 173.338 148.801 173.354 148.795C173.354 148.795 173.364 148.795 173.369 148.795C173.374 148.795 173.38 148.795 173.39 148.795C173.441 148.78 173.524 148.795 173.637 148.831C173.735 148.862 173.844 148.909 173.988 148.996L174.05 149.027C174.282 149.12 179.805 151.338 183.075 152.003C183.219 152.039 183.374 152.08 183.544 152.127L185.231 152.782L185.726 152.421C185.607 150.889 183.348 146.217 174.808 144.922H174.793C175.427 144.458 176.257 144.123 177.118 143.494L177.16 143.473C177.206 143.447 181.59 140.972 188.541 139.678C194.962 138.481 204.946 138.089 216.003 143.014L216.106 142.787L216.292 142.865C216.488 142.395 216.735 141.983 217.019 141.622L216.993 141.606ZM223.14 138.177C222.501 138.213 221.635 138.306 220.706 138.548C220.706 138.548 220.706 138.548 220.696 138.548C220.103 138.703 219.551 138.904 219.041 139.141C218.814 139.25 218.623 139.389 218.411 139.513C218.159 139.662 217.891 139.801 217.658 139.977C217.426 140.147 217.236 140.353 217.034 140.549C216.875 140.709 216.699 140.864 216.555 141.039C216.369 141.266 216.225 141.508 216.07 141.756C215.988 141.89 215.879 142.009 215.807 142.148C204.761 137.372 194.812 137.764 188.376 138.961C181.554 140.229 177.134 142.638 176.788 142.834C175.38 143.535 173.854 144.608 173.978 145.093C174.019 145.263 174.127 145.567 174.674 145.624C175.257 145.711 175.901 145.835 176.572 145.995C178.16 146.913 180.904 148.646 181.677 150.095C181.677 150.095 179.073 149.693 175.943 148.996C175.071 148.672 174.457 148.424 174.318 148.367C173.828 148.068 173.405 147.986 173.065 148.12C172.668 148.274 172.56 148.656 172.549 148.697L172.523 148.795L172.554 148.893C172.585 148.986 172.683 149.229 172.781 149.486L172.838 149.631C173.163 150.456 173.653 151.255 174.303 152.013C176.257 154.293 179.676 156.253 184.514 157.872C188.464 159.192 192.187 159.857 193.374 160.053C193.544 160.079 193.662 160.1 193.719 160.105C204.895 164.468 214.76 169.475 216.854 170.553C216.013 171.239 213.718 172.049 212.223 172.466C206.602 170.899 202.032 170.517 199.181 170.476C196.06 170.429 194.302 170.754 194.23 170.765L192.708 171.053L194.199 171.466C201.006 173.323 205.25 176.458 206.813 180.775C207.143 181.698 207.339 182.631 207.427 183.559C207.473 184.024 207.483 184.483 207.483 184.936C207.458 187.216 206.875 189.361 206.256 191.001C205.58 192.801 204.771 194.266 204.25 195.117C203.941 195.622 203.739 195.916 203.734 195.921L203.301 196.53L203.997 196.493H204.049C209.103 196.194 212.47 188.211 212.651 187.778C214.213 184.379 216.472 182.1 219.18 181.187C220.201 180.847 221.114 180.754 221.774 180.749C222.429 180.749 222.836 180.826 222.846 180.831C223.455 180.955 224.033 181.007 224.584 181.007C228.349 181.007 230.587 178.459 231.263 177.557C231.402 177.371 231.5 177.226 231.505 177.226C231.908 176.613 232.274 176.009 232.599 175.401C232.702 175.21 232.779 175.024 232.872 174.834C233.073 174.421 233.284 174.014 233.455 173.611C233.563 173.354 233.64 173.101 233.733 172.843C233.857 172.508 233.991 172.173 234.094 171.837C234.182 171.559 234.239 171.28 234.306 171.002C234.383 170.703 234.471 170.398 234.527 170.099C234.584 169.805 234.615 169.517 234.656 169.228C234.698 168.949 234.749 168.666 234.77 168.387C234.801 168.083 234.806 167.789 234.816 167.49C234.826 167.232 234.847 166.974 234.847 166.716C234.847 166.402 234.821 166.097 234.806 165.793C234.79 165.561 234.785 165.324 234.759 165.092C234.728 164.772 234.677 164.458 234.63 164.138C234.6 163.926 234.574 163.715 234.532 163.503C234.471 163.173 234.393 162.854 234.311 162.529C234.269 162.343 234.223 162.152 234.177 161.972C234.084 161.631 233.976 161.301 233.867 160.971C233.816 160.806 233.764 160.641 233.707 160.487C233.578 160.141 233.444 159.801 233.305 159.46C233.248 159.326 233.197 159.187 233.14 159.053C232.985 158.697 232.815 158.346 232.645 157.996C232.593 157.893 232.547 157.789 232.495 157.681C232.31 157.315 232.114 156.959 231.908 156.598C231.866 156.521 231.82 156.443 231.779 156.366C231.562 155.99 231.335 155.629 231.098 155.268C231.072 155.221 231.041 155.17 231.01 155.123C230.763 154.742 230.505 154.37 230.247 154.004C230.231 153.983 230.216 153.963 230.201 153.942C229.927 153.561 229.649 153.189 229.365 152.828C228.813 151.008 229.757 149.12 229.762 149.1L229.912 148.811L229.628 148.635C227.802 147.491 226.632 145.794 225.874 144.113C225.373 142.994 225.064 141.88 224.868 140.946C224.77 140.477 224.703 140.054 224.651 139.698C224.553 138.987 224.543 138.538 224.543 138.517V138.187L224.203 138.167C224.187 138.167 224.022 138.156 223.754 138.156C223.584 138.156 223.367 138.161 223.115 138.177H223.14Z" fill="white"/>
</mask>
<g mask="url(#mask3_2983_8549)">
<path d="M179.82 117.34L153.516 189.609L227.574 216.564L253.878 144.294L179.82 117.34Z" fill="url(#paint3_linear_2983_8549)"/>
</g>
</g>
<defs>
<linearGradient id="paint0_linear_2983_8549" x1="160.277" y1="201.711" x2="232.754" y2="262.526" gradientUnits="userSpaceOnUse">
<stop stop-color="#F1BE56"/>
<stop offset="0.29" stop-color="#926021"/>
<stop offset="0.52" stop-color="#F5E6A2"/>
<stop offset="0.81" stop-color="#D19049"/>
<stop offset="0.99" stop-color="#83501E"/>
<stop offset="1" stop-color="#83501E"/>
</linearGradient>
<linearGradient id="paint1_linear_2983_8549" x1="3369.3" y1="2865.62" x2="3456.8" y2="2939.05" gradientUnits="userSpaceOnUse">
<stop stop-color="#F1BE56"/>
<stop offset="0.29" stop-color="#926021"/>
<stop offset="0.52" stop-color="#F5E6A2"/>
<stop offset="0.81" stop-color="#D19049"/>
<stop offset="0.99" stop-color="#83501E"/>
<stop offset="1" stop-color="#83501E"/>
</linearGradient>
<linearGradient id="paint2_linear_2983_8549" x1="131.021" y1="201.142" x2="250.494" y2="100.892" gradientUnits="userSpaceOnUse">
<stop stop-color="#F1BE56"/>
<stop offset="0.29" stop-color="#926021"/>
<stop offset="0.54" stop-color="#C09C5B"/>
<stop offset="0.81" stop-color="#D19049"/>
<stop offset="0.99" stop-color="#83501E"/>
<stop offset="1" stop-color="#83501E"/>
</linearGradient>
<linearGradient id="paint3_linear_2983_8549" x1="973.28" y1="-1947.52" x2="994.515" y2="-2005.86" gradientUnits="userSpaceOnUse">
<stop stop-color="#F1BE56"/>
<stop offset="0.29" stop-color="#926021"/>
<stop offset="0.52" stop-color="#F5E6A2"/>
<stop offset="0.81" stop-color="#D19049"/>
<stop offset="0.99" stop-color="#83501E"/>
<stop offset="1" stop-color="#83501E"/>
</linearGradient>
<clipPath id="clip0_2983_8549">
<rect width="197.553" height="140" fill="white" transform="translate(104 105)"/>
</clipPath>
</defs>
</svg>
